<svg xmlns="http://www.w3.org/2000/svg" viewBox="0 0 428.256 441.393"><defs><style>.cls-1{fill:#ffeb46;}.cls-2{fill:#fff;}.cls-3{fill:#5994ff;}.cls-4{font-size:72px;font-family:NEWACADEMY, NEW ACADEMY;}.cls-5,.cls-6,.cls-7{fill:none;stroke:#000;stroke-miterlimit:10;}.cls-5{stroke-width:24px;}.cls-6{stroke-width:18px;}.cls-7{stroke-width:28px;}</style></defs><g id="yellow-round"><path class="cls-1" d="M417.735,211.717c0,112.953-90.495,204.519-202.128,204.519S13.479,324.67,13.479,211.717c0-57.832,27.4-115.458,69.256-150.467,1.443-1.207,78.328.046,132.8.046,52.614,0,133.332-.761,133.332-.761C391.723,96.974,417.735,152,417.735,211.717Z" transform="translate(-1.479 13.157)"/></g><g id="white-base"><polygon class="cls-2" points="75.548 77.572 159.066 246.74 273.041 246.74 351.81 77.572 75.548 77.572"/></g><g id="blue-triangle"><polygon class="cls-3" points="159.066 246.74 214.58 360.518 271.139 246.74 159.066 246.74"/><text class="cls-4" transform="translate(85.125 53.928)">SOLID</text></g><g id="black-round_copy" data-name="black-round copy"><path class="cls-5" d="M417.735,211.717c0,112.953-90.495,204.519-202.128,204.519S13.479,324.67,13.479,211.717c0-57.832,27.4-115.458,69.256-150.467,1.443-1.207,78.328.046,132.8.046,52.614,0,133.332-.761,133.332-.761C391.723,96.974,417.735,152,417.735,211.717Z" transform="translate(-1.479 13.157)"/></g><g id="pyramid"><polyline class="cls-6" points="75.548 83.114 213.521 358.404 351.81 83.114"/></g><g id="cross-bar"><line class="cls-7" x1="156.631" y1="241.74" x2="268.574" y2="241.74"/><line class="cls-7" x1="82.541" y1="83.114" x2="341.917" y2="83.114"/></g></svg>