<svg xmlns="http://www.w3.org/2000/svg" viewBox="0 0 432 504"><defs><style>.cls-1{fill:#ffeb46;}.cls-2{fill:#fff;}.cls-3{fill:#5994ff;}.cls-4,.cls-5,.cls-6{fill:none;stroke:#000;stroke-miterlimit:10;}.cls-4{stroke-width:24px;}.cls-5{stroke-width:18px;}.cls-6{stroke-width:28px;}.cls-7,.cls-8{font-size:72px;font-family:NEWACADEMY, NEW ACADEMY;}.cls-8{fill:#1a2bff;}</style></defs><g id="yellow-round"><path class="cls-1" d="M417.74,247.72c0,113-90.5,204.52-202.13,204.52S13.48,360.67,13.48,247.72c0-57.83,27.4-115.46,69.26-150.47,1.44-1.21,78.32,0,132.8,0,52.61,0,133.33-.77,133.33-.77C391.72,133,417.74,188,417.74,247.72Z"/></g><g id="white-base"><polygon class="cls-2" points="77.03 100.41 160.54 269.58 274.52 269.58 353.29 100.41 77.03 100.41"/></g><g id="blue-triangle"><polygon class="cls-3" points="160.54 269.58 216.06 383.36 272.62 269.58 160.54 269.58"/></g><g id="black-round_copy" data-name="black-round copy"><path class="cls-4" d="M417.74,247.72c0,113-90.5,204.52-202.13,204.52S13.48,360.67,13.48,247.72c0-57.83,27.4-115.46,69.26-150.47,1.44-1.21,78.32,0,132.8,0,52.61,0,133.33-.77,133.33-.77C391.72,133,417.74,188,417.74,247.72Z"/></g><g id="pyramid"><polyline class="cls-5" points="77.03 105.96 215 381.25 353.29 105.96"/></g><g id="cross-bar"><line class="cls-6" x1="158.11" y1="264.58" x2="270.05" y2="264.58"/><line class="cls-6" x1="84.02" y1="105.96" x2="343.4" y2="105.96"/></g><g id="solid"><text id="SOLID-2" data-name="SOLID" class="cls-7" transform="translate(86.6 56.77)">SOLID</text><text class="cls-8" transform="translate(86.6 56.77)">SOLID</text></g></svg>